 <svg width="20" height="20" viewBox="0 0 20 20" fill="none" xmlns="http://www.w3.org/2000/svg">
<path d="M10.4686 4.16669C10.4686 3.9078 10.2587 3.69794 9.99984 3.69794C9.74096 3.69794 9.53109 3.9078 9.53109 4.16669V9.53127H4.1665C3.90762 9.53127 3.69775 9.74114 3.69775 10C3.69775 10.2589 3.90762 10.4688 4.1665 10.4688H9.53109V15.8334C9.53109 16.0922 9.74096 16.3021 9.99984 16.3021C10.2587 16.3021 10.4686 16.0922 10.4686 15.8334V10.4688H15.8332C16.0921 10.4688 16.3019 10.2589 16.3019 10C16.3019 9.74114 16.0921 9.53127 15.8332 9.53127H10.4686V4.16669Z" fill="#121212"/>
</svg>